# xmcd CD database file
#
# Track frame offsets:
#	150
#	15107
#	33133
#	48210
#	71284
#	93963
#	114599
#	133176
#	149705
#	176814
#	191495
#
# Disc length: 2606 seconds
#
# Revision: 1
# Processed by: cddbd v1.5.2PL0 Copyright (c) Steve Scherf et al.
# Submitted via: CDex 1.85
#
DISCID=8e0a2c0b
DTITLE=Simply Red - Home
DYEAR=2003
DGENRE=Pop
TTITLE0=Home
TTITLE1=Fake
TTITLE2=Sunrise
TTITLE3=You Make Me Feel Brand New
TTITLE4=Home Loan Blues
TTITLE5=Positively 4th Street
TTITLE6=Lost Weekend
TTITLE7=Money In My Pocket (Plan B Mix)
TTITLE8=Something For You
TTITLE9=It's You
TTITLE10=Home (Reprise)
EXTD=YEAR: 2003
EXTT0=
EXTT1=
EXTT2=
EXTT3=
EXTT4=
EXTT5=
EXTT6=
EXTT7=
EXTT8=
EXTT9=
EXTT10=
PLAYORDER=
